<?xml version="1.0" encoding="UTF-8" standalone="no"?><!DOCTYPE svg PUBLIC "-//W3C//DTD SVG 1.1//EN" "http://www.w3.org/Graphics/SVG/1.1/DTD/svg11.dtd"><svg width="100%" height="100%" viewBox="0 0 500 500" version="1.1" xmlns="http://www.w3.org/2000/svg" xmlns:xlink="http://www.w3.org/1999/xlink" xml:space="preserve" xmlns:serif="http://www.serif.com/" style="fill-rule:evenodd;clip-rule:evenodd;stroke-linejoin:round;stroke-miterlimit:2;"><g><path d="M116.891,68.768c-4.771,2.034 -7.156,4.103 -7.717,6.664c-0.175,0.701 -0.386,0.912 -0.807,0.807c-0.35,-0.106 -1.262,-0.316 -2.069,-0.491c-0.807,-0.176 -1.964,-0.702 -2.561,-1.123c-0.912,-0.666 -1.192,-0.701 -1.438,-0.315c-0.175,0.28 -0.315,0.631 -0.315,0.806c-0,0.316 -3.017,0.141 -6.244,-0.351c-1.368,-0.21 -1.508,-0.175 -1.403,0.421c0.07,0.527 -0.175,0.702 -1.648,0.877c-4.525,0.561 -12.417,3.438 -15.714,5.682c-2.42,1.649 -3.683,1.965 -7.611,2c-3.964,-0 -14.977,0.912 -19.817,1.613c-7.015,1.052 -9.681,2.455 -15.433,8.138c-3.052,2.981 -3.648,3.788 -4.56,5.997c-0.772,1.859 -1.368,2.771 -2.175,3.332c-2.42,1.579 -2.245,4.315 0.316,5.472c0.842,0.386 2.595,1.789 3.893,3.157c4.209,4.314 7.752,5.682 13.013,4.945c5.402,-0.771 7.717,-0.385 15.293,2.386c7.892,2.911 13.784,6.664 15.433,9.856c0.315,0.666 0.912,2.455 1.262,3.998l0.632,2.736l0.806,-0.912c0.421,-0.491 0.842,-0.912 0.947,-0.912c0.281,0 1.228,3.262 1.649,5.717c0.386,2.245 0.456,2.385 1.193,2.21c0.736,-0.175 0.911,0.105 2.104,2.876c0.737,1.684 2.385,4.56 3.683,6.384c1.298,1.824 2.455,3.613 2.595,3.998c0.106,0.351 1.544,2.561 3.157,4.911c2.841,4.139 3.052,4.595 5.016,10.733c0.105,0.316 0.386,-0 0.772,-0.877l0.631,-1.403l0.631,1.473c0.491,1.263 0.737,1.473 1.368,1.298c0.772,-0.175 1.368,0.491 4.805,5.472c2.421,3.507 3.438,6.594 3.508,10.452l-0,1.648l0.947,-1.859c0.491,-0.982 1.052,-1.823 1.228,-1.823c0.14,-0 1.122,0.631 2.104,1.403c1.719,1.297 1.824,1.332 1.999,0.631c0.141,-0.561 0.632,-0.035 2.491,2.736c7.365,11.083 14.451,19.186 21.957,25.254c6.208,5.015 12.556,8.804 21.08,12.557c5.998,2.665 7.26,3.086 14.801,4.875c4.525,1.052 9.12,2.14 10.172,2.385c4.174,0.912 5.226,1.754 11.89,9.33c4.209,4.805 7.226,7.611 9.751,9.014c2,1.123 2.526,2.385 3.122,7.471c0.421,3.438 0.491,6.419 0.351,12.908c-0.456,17.187 -0.947,26.622 -1.719,31.567c-0.526,3.578 -0.737,6.489 -0.737,10.698c0.036,5.086 0.176,6.419 1.123,11.154c1.368,6.559 1.438,10.698 0.421,20.94c-2.455,24.201 -4.49,34.408 -8.348,41.458c-2.105,3.824 -3.157,5.016 -7.576,8.664c-4.7,3.858 -7.015,6.454 -8.488,9.505c-1.158,2.35 -1.438,3.823 -0.912,4.56c0.14,0.21 0.947,0.666 1.824,1.052c0.876,0.386 2.069,1.123 2.665,1.649c1.614,1.438 2.28,1.578 8.944,2.034c7.612,0.561 13.995,0.246 17.152,-0.772c4.805,-1.543 5.577,-3.823 2.876,-8.663c-1.473,-2.701 -2.525,-5.998 -2.525,-7.927c-0,-2.42 1.333,-6.349 3.613,-10.733l2.174,-4.209l-0.105,-5.507c-0.14,-8.523 0.982,-18.975 3.297,-30.831c1.473,-7.681 2.245,-10.803 3.437,-14.03c2.666,-7.05 3.227,-10.347 3.578,-19.922c0.21,-5.963 1.122,-13.75 2.245,-18.941c0.701,-3.227 1.192,-6.699 1.578,-11.399c0.14,-1.438 0.702,-4.525 1.228,-6.84c0.561,-2.315 1.157,-5.471 1.403,-7.015c0.666,-4.665 0.771,-4.84 1.298,-2.455c0.561,2.736 1.999,12.978 2.946,21.396c0.666,6.068 0.736,7.962 0.561,21.22c-0.14,11.961 -0.07,14.907 0.351,16.485c1.262,4.876 3.577,15.644 4.174,19.292c0.561,3.718 0.561,5.121 0.175,18.063c-0.351,12.943 -1.122,29.428 -1.613,34.9c-0.106,1.263 -0.597,3.788 -1.123,5.647c-0.806,3.016 -1.122,3.648 -2.981,5.928c-1.158,1.368 -2.841,3.016 -3.718,3.612c-3.964,2.771 -6.489,5.963 -7.752,9.786c-1.333,3.999 -0.596,5.191 3.473,5.682c1.157,0.141 2.701,0.702 3.858,1.368c1.789,1.017 2.21,1.088 5.963,1.228c6.418,0.245 13.258,-0.491 16.906,-1.754c1.894,-0.666 3.367,-1.438 3.963,-2.034c0.912,-0.947 0.947,-1.193 0.912,-4.104c0,-3.087 -0.526,-5.331 -2.139,-9.049c-1.263,-2.912 -0.982,-4.77 1.298,-9.155c1.858,-3.613 1.964,-3.963 1.964,-6.278c-0,-1.614 -0.281,-3.157 -0.772,-4.56c-1.754,-4.77 -2.736,-15.328 -2.385,-25.254c0.842,-23.956 0.912,-24.728 2.596,-32.97c2.069,-10.242 2.314,-15.153 1.122,-21.747c-0.877,-4.875 -0.982,-8.839 -0.702,-21.571c0.106,-4.314 -0.035,-9.611 -0.491,-15.819l-0.666,-9.365l1.368,-4.489c0.807,-2.561 1.683,-4.771 2.104,-5.156c2.35,-2.28 9.891,-6.068 14.732,-7.366c3.437,-0.912 9.926,-2.035 13.679,-2.35c8.804,-0.737 16.275,-2.28 22.659,-4.7c5.647,-2.105 18.309,-8.664 27.148,-14.065c13.784,-8.418 18.309,-11.014 18.589,-10.628c0.035,0.07 0.246,3.262 0.491,7.12c0.211,3.858 0.632,8.523 0.912,10.347c0.456,2.982 2.456,9.576 4.735,15.538c0.842,2.21 5.086,9.506 9.821,16.907c3.613,5.682 5.156,8.909 7.787,16.485c2.069,5.963 2.841,7.716 5.928,13.013c0.877,1.578 2.104,4.314 2.7,6.138c4.209,12.837 4.455,20.063 1.158,37.635c-1.543,8.138 -2.28,11.084 -5.331,21.045c-3.298,10.803 -3.789,12.101 -7.015,18.73c-3.964,8.173 -4.63,8.979 -9.857,12.066c-4.033,2.42 -10.803,7.576 -12.03,9.19c-1.579,2.104 -3.683,6.489 -3.683,7.786c-0,1.544 1.017,2.596 2.56,2.596c0.597,-0 1.929,0.386 2.877,0.807c4.454,2.069 4.7,2.104 16.765,1.718c10.172,-0.351 11.189,-0.456 12.522,-1.122c2.175,-1.123 2.981,-3.122 2.666,-6.629c-0.141,-1.473 -0.491,-3.578 -0.807,-4.665c-0.526,-1.965 -0.456,-2.876 0.456,-6.279c0.105,-0.315 0.772,-0.982 1.543,-1.508c2.35,-1.543 3.332,-4.279 3.824,-10.733c0.42,-5.156 2.595,-13.96 4.945,-19.817c3.753,-9.4 9.085,-20.063 13.293,-26.482c5.507,-8.453 7.086,-11.364 7.121,-13.188c0.035,-1.754 -0.807,-4.419 -2.42,-7.646c-2.666,-5.297 -5.016,-21.326 -5.016,-33.707l0.035,-4.56l1.017,1.227c0.631,0.772 1.929,3.718 3.543,8.068c3.858,10.382 4.244,11.083 10.347,19.186c3.016,3.998 6.243,8.172 7.155,9.224c2.525,2.912 7.927,12.838 9.155,16.801c1.332,4.244 2.279,10.207 2.911,17.924c0.736,9.119 0.316,16.625 -1.579,28.761c-0.947,6.138 -1.473,10.593 -1.438,12.276c0.035,2.035 -0.14,3.297 -0.876,5.472c-0.983,3.052 -0.597,2.561 -9.927,12.837c-2.244,2.456 -3.788,4.525 -4.665,6.279c-1.473,2.876 -1.999,5.261 -1.333,6.068c0.737,0.877 9.085,2.525 16.416,3.262c2.841,0.28 14.065,-0.912 15.538,-1.649c2.35,-1.227 5.051,-4.875 4.244,-5.822c-0.14,-0.176 -0.456,-1.193 -0.702,-2.245c-0.28,-1.052 -0.947,-2.771 -1.508,-3.788c-1.578,-2.806 -2.35,-6.243 -1.964,-8.944c0.842,-6.138 1.438,-8.734 2.21,-9.646c1.262,-1.543 1.648,-4.104 1.192,-8.698c-0.175,-2.21 -0.666,-4.911 -1.052,-5.998c-1.052,-3.087 -1.508,-10.698 -1.052,-17.082c1.122,-15.047 3.262,-39.775 3.718,-43.177c1.052,-7.787 0.666,-8.944 -4.034,-12.136c-3.858,-2.595 -6.068,-5.086 -9.33,-10.382c-2.771,-4.595 -4.735,-9.4 -7.436,-18.344c-4.56,-15.083 -5.086,-18.59 -4.104,-27.604c0.421,-3.788 0.632,-8.278 0.632,-14.135c-0,-7.717 -0.105,-9.085 -0.912,-13.329c-0.491,-2.596 -1.684,-8.944 -2.666,-14.135c-1.122,-5.823 -1.789,-10.347 -1.789,-11.926l0,-2.525l0.912,1.368c2.596,3.788 5.893,12.767 8.383,22.693c1.649,6.489 6.594,28.727 7.366,33.111c1.017,5.717 0.772,11.75 -0.737,16.801c-0.491,1.543 -0.947,3.964 -1.087,5.331c-0.21,2.771 0.175,9.26 0.561,9.26c0.176,0 0.561,-0.631 0.912,-1.403c0.702,-1.578 1.228,-1.333 1.228,0.632c-0,1.297 1.999,12.521 2.385,13.539c0.21,0.455 0.736,-1.088 1.789,-5.086c2.56,-9.716 2.56,-9.751 2.385,-15.924c-0.176,-5.577 -0.351,-6.63 -2.876,-17.327c-0.211,-0.807 -0.176,-0.807 1.052,0.28c0.736,0.632 1.368,1.052 1.473,0.982c0.07,-0.105 -0.491,-1.508 -1.228,-3.156c-1.613,-3.438 -2.841,-8.418 -3.928,-15.679c-0.421,-2.806 -1.228,-7.366 -1.789,-10.172c-0.561,-2.806 -1.508,-7.681 -2.104,-10.873c-1.649,-8.979 -5.577,-20.975 -9.26,-28.411c-1.964,-3.928 -4.84,-8.488 -8.383,-13.258c-1.157,-1.613 -2.14,-3.016 -2.14,-3.157c-0.035,-0.736 -5.401,-10.943 -6.769,-12.802c-3.016,-4.174 -6.875,-8.067 -10.768,-10.944c-4.349,-3.191 -8.173,-5.05 -19.817,-9.61c-9.786,-3.823 -13.82,-6.314 -24.904,-15.258c-4.103,-3.297 -8.768,-8.172 -11.504,-11.96c-0.807,-1.123 -3.929,-8.348 -3.929,-9.05c0,-0.105 0.351,-0.105 0.737,0c0.737,0.211 0.701,0.141 -0.21,-1.508c-0.527,-0.947 -1.193,-2.069 -1.474,-2.525c-0.456,-0.737 -0.421,-0.772 0.597,-0.772c1.332,0 1.332,-0.386 -0,-1.192c-0.702,-0.386 -1.824,-1.894 -3.227,-4.35c-2.771,-4.84 -6.419,-8.523 -11.329,-11.539c-3.859,-2.385 -12.207,-6.349 -17.257,-8.208c-3.192,-1.157 -3.227,-1.192 -2.35,-1.648c1.122,-0.597 0.841,-0.912 -1.614,-1.649c-3.262,-0.947 -7.33,-1.578 -11.995,-1.824c-3.543,-0.175 -4.42,-0.316 -4.104,-0.666c0.666,-0.807 -5.226,-1.017 -9.365,-0.351c-6.91,1.122 -11.329,3.016 -18.73,8.067c-6.735,4.595 -10.207,6.629 -14.03,8.138c-4.034,1.578 -6.84,3.507 -10.347,7.085c-3.368,3.437 -7.401,9.786 -4.35,6.874l1.053,-1.017l-1.018,2.28c-3.051,6.735 -6.804,11.119 -12.592,14.626c-4.103,2.491 -8.277,4.876 -11.153,6.349c-1.158,0.631 -2.421,1.368 -2.806,1.719c-1.123,0.982 -2.736,3.472 -4.49,6.944c-2.525,5.016 -6.875,11.821 -9.54,14.907c-2.561,2.947 -6.7,6.384 -9.19,7.682c-1.964,0.982 -2.104,0.947 -1.929,-0.491c0.07,-0.667 -0,-1.228 -0.175,-1.228c-0.176,0 -0.912,1.052 -1.649,2.315c-1.438,2.561 -3.893,5.402 -4.595,5.402c-0.245,-0 -0.561,-0.281 -0.666,-0.597c-0.211,-0.491 -0.456,-0.28 -1.263,0.947c-0.561,0.877 -2.14,2.456 -3.507,3.508c-2.07,1.613 -2.982,2.069 -5.858,2.876c-2.981,0.842 -4.069,0.982 -8.102,0.982c-4.104,0 -5.121,-0.14 -8.944,-1.122c-3.894,-1.017 -4.665,-1.368 -8.664,-3.894c-6.173,-3.893 -8.348,-6.138 -13.539,-13.959c-3.788,-5.718 -5.086,-8.103 -10.137,-18.625c-3.191,-6.665 -5.787,-12.171 -5.787,-12.277c0,-0.14 0.526,-0.35 1.123,-0.455l1.157,-0.281l-1.157,-0.947c-1.754,-1.473 -3.262,-5.963 -2,-5.963c0.772,0 0.667,-0.245 -0.736,-1.929c-1.123,-1.403 -1.193,-1.543 -0.597,-1.859c0.737,-0.421 0.772,-0.386 -1.368,-1.613c-1.578,-0.912 -2.911,-2.666 -4.594,-5.998c-1.158,-2.35 -1.123,-2.455 0.912,-2.561c3.121,-0.175 5.366,-0.982 9.821,-3.507c2.35,-1.333 4.945,-2.771 5.787,-3.192c1.438,-0.737 1.789,-1.193 1.193,-1.578c-0.176,-0.106 0.526,-1.053 1.578,-2.14c3.507,-3.613 6.068,-8.699 6.068,-12.031c-0,-1.262 -1.368,-2.525 -2.771,-2.525c-0.491,-0.035 -3.122,1.087 -5.823,2.455c-4.664,2.35 -5.156,2.526 -9.82,3.332c-2.701,0.456 -5.262,0.947 -5.718,1.088c-0.806,0.21 -0.806,0.21 0.316,-2.701c1.543,-4.069 1.684,-5.507 0.631,-6.314c-1.087,-0.841 -2.876,-0.806 -5.05,0.141Z" style="fill:#fff;fill-rule:nonzero;"/></g><g id="_48427.svg" serif:id="48427.svg"></g></svg>