<?xml version="1.0" encoding="UTF-8" standalone="no"?><!DOCTYPE svg PUBLIC "-//W3C//DTD SVG 1.1//EN" "http://www.w3.org/Graphics/SVG/1.1/DTD/svg11.dtd"><svg width="100%" height="100%" viewBox="0 0 60 60" version="1.1" xmlns="http://www.w3.org/2000/svg" xmlns:xlink="http://www.w3.org/1999/xlink" xml:space="preserve" xmlns:serif="http://www.serif.com/" style="fill-rule:evenodd;clip-rule:evenodd;stroke-linejoin:round;stroke-miterlimit:2;"><path d="M18.405,30.847l26.582,-25.765c0.793,-0.768 0.812,-2.035 0.044,-2.828c-0.768,-0.793 -2.035,-0.812 -2.828,-0.044l-23.798,23.066l0,-5.942l14.578,-14.258c0.789,-0.772 0.803,-2.039 0.031,-2.828c-0.771,-0.79 -2.039,-0.804 -2.828,-0.032l-11.781,11.523l0,-10.093c0,-1.104 -0.896,-2 -2,-2c-1.104,0 -2,0.896 -2,2l0,52.708c0,1.105 0.896,2 2,2c1.105,-0 2,-0.895 2,-2l0,-25.507Z" style="fill:#fff;"/></svg>