<?xml version="1.0" encoding="UTF-8" standalone="no"?><!DOCTYPE svg PUBLIC "-//W3C//DTD SVG 1.1//EN" "http://www.w3.org/Graphics/SVG/1.1/DTD/svg11.dtd"><svg width="100%" height="100%" viewBox="0 0 500 500" version="1.1" xmlns="http://www.w3.org/2000/svg" xmlns:xlink="http://www.w3.org/1999/xlink" xml:space="preserve" xmlns:serif="http://www.serif.com/" style="fill-rule:evenodd;clip-rule:evenodd;stroke-linejoin:round;stroke-miterlimit:2;"><clipPath id="_clip1"><rect id="_2023236.svg" serif:id="2023236.svg" x="67.367" y="14.948" width="385.266" height="470.105"/></clipPath><g clip-path="url(#_clip1)"><g><path d="M288.28,15.352c-27.178,1.689 -53.952,8.043 -78.78,18.694c-10.43,4.444 -30.005,14.947 -36.176,19.391c-0.808,0.551 -3.966,2.828 -7.014,4.995c-6.575,4.628 -13.442,10.1 -19.135,15.132c-5.987,5.288 -13.773,12.634 -14.617,13.772c-0.404,0.551 -2.314,2.718 -4.224,4.812c-44.917,49.287 -66.659,115.8 -59.645,182.459c5.62,53.585 29.235,103.166 67.394,141.362c24.424,24.423 52.483,42.456 85.023,54.576c14.911,5.546 31.769,9.843 47.892,12.12c12.524,1.763 18.731,2.167 33.054,2.167c13.736,0.037 19.062,-0.294 29.749,-1.653c3.122,-0.404 6.684,-0.844 7.896,-0.918c1.212,-0.11 4.444,-0.698 7.162,-1.285c25.966,-5.877 40.29,-10.761 59.681,-20.347c14.177,-7.015 24.681,-13.442 36.727,-22.477c9.586,-7.198 10.468,-8.19 8.705,-9.953c-0.625,-0.624 -1.58,-0.734 -8.558,-0.918c-63.978,-1.873 -124.357,-30.814 -166.924,-79.955c-43.484,-50.242 -63.06,-117.746 -53.364,-184.002c8.007,-54.87 35.589,-104.818 78.008,-141.362c4.261,-3.672 4.224,-3.599 4.224,-4.848c-0,-1.909 -0.808,-2.166 -6.831,-2.13c-3.012,0.037 -7.603,0.221 -10.247,0.368Z" style="fill:#fff;fill-rule:nonzero;"/></g></g><g id="_2023236.svg1" serif:id="2023236.svg"></g></svg>