<?xml version="1.0" encoding="UTF-8" standalone="no"?><!DOCTYPE svg PUBLIC "-//W3C//DTD SVG 1.1//EN" "http://www.w3.org/Graphics/SVG/1.1/DTD/svg11.dtd"><svg width="100%" height="100%" viewBox="0 0 500 500" version="1.1" xmlns="http://www.w3.org/2000/svg" xmlns:xlink="http://www.w3.org/1999/xlink" xml:space="preserve" xmlns:serif="http://www.serif.com/" style="fill-rule:evenodd;clip-rule:evenodd;stroke-linejoin:round;stroke-miterlimit:2;"><clipPath id="_clip1"><rect id="_35893.svg" serif:id="35893.svg" x="45.5" y="17.531" width="409" height="464.938"/></clipPath><g clip-path="url(#_clip1)"><g><path d="M252.724,17.967c-0.072,0.254 -0.944,3.015 -1.961,6.102c-0.981,3.088 -4.541,14.13 -7.846,24.518c-8.391,26.226 -19.796,61.714 -28.877,90.082c-4.25,13.186 -7.81,24.337 -7.882,24.809c-0.109,0.436 -0.327,0.908 -0.509,0.981c-0.218,0.145 -155.972,-38.576 -159.495,-39.629c-0.472,-0.145 -0.654,0 -0.654,0.509c0,0.653 13.549,15.691 93.569,103.92l15.001,16.528l-8.681,8.899c-4.758,4.903 -29.168,30.184 -54.267,56.155l-45.622,47.221l0,2.978c0,1.671 0.073,3.015 0.145,3.015c0.182,0 10.098,-2.143 35.452,-7.628c12.095,-2.615 24.918,-5.412 28.514,-6.175c3.596,-0.763 16.418,-3.559 28.513,-6.175c12.096,-2.615 25.318,-5.485 29.422,-6.356c4.105,-0.908 12.677,-2.761 19.07,-4.141c6.393,-1.38 11.66,-2.506 11.696,-2.434c0.036,0.037 9.48,32.982 20.995,73.228c11.514,40.246 21.249,74.317 21.649,75.661l0.726,2.47l2.761,-0.109c2.615,-0.109 2.796,-0.145 3.051,-1.017c0.109,-0.508 3.705,-11.696 7.954,-24.881c4.214,-13.186 11.115,-34.653 15.293,-47.693c4.177,-13.003 11.042,-34.434 15.255,-47.583c4.214,-13.113 7.774,-24.228 7.846,-24.7c0.109,-0.436 0.327,-0.908 0.509,-0.981c0.218,-0.145 155.972,38.576 159.532,39.629c0.435,0.145 0.617,-0 0.617,-0.509c0,-0.653 -13.549,-15.691 -93.569,-103.92l-15.001,-16.528l8.681,-8.899c4.758,-4.903 29.168,-30.184 54.267,-56.155l45.622,-47.221l0,-3.015c0,-1.634 -0.073,-2.978 -0.145,-2.978c-0.182,-0 -10.098,2.143 -35.452,7.628c-12.095,2.615 -24.918,5.412 -28.514,6.175c-3.596,0.763 -16.418,3.559 -28.513,6.175c-12.096,2.615 -25.318,5.485 -29.422,6.356c-4.105,0.908 -12.677,2.761 -19.07,4.141c-6.393,1.38 -11.66,2.506 -11.696,2.434c-0.036,-0.037 -9.48,-32.982 -20.995,-73.228c-11.514,-40.246 -21.249,-74.281 -21.649,-75.661l-0.726,-2.434l-2.724,0c-1.853,0 -2.761,0.145 -2.87,0.436Z" style="fill:#fff;fill-rule:nonzero;"/></g></g><g id="_35893.svg1" serif:id="35893.svg"></g></svg>