<?xml version="1.0" encoding="UTF-8" standalone="no"?><!DOCTYPE svg PUBLIC "-//W3C//DTD SVG 1.1//EN" "http://www.w3.org/Graphics/SVG/1.1/DTD/svg11.dtd"><svg width="100%" height="100%" viewBox="0 0 500 500" version="1.1" xmlns="http://www.w3.org/2000/svg" xmlns:xlink="http://www.w3.org/1999/xlink" xml:space="preserve" xmlns:serif="http://www.serif.com/" style="fill-rule:evenodd;clip-rule:evenodd;stroke-miterlimit:10;"><g><path d="M272.357,424.608c-1.371,0.81 -4.346,-0.811 -5.717,-0.811c-1.622,-1.635 -2.98,-2.99 -2.98,-4.081c-0.546,-1.902 0.268,-4.35 1.358,-4.35c1.622,-0.546 2.993,-0 5.158,1.636c0.527,1.891 2.977,5.426 2.17,7.597l0.011,0.009Zm45.369,-14.404c-1.904,-0 -1.374,-4.614 -1.374,-5.439c0.281,-2.165 0.828,-4.067 2.729,-4.613c0.809,-1.357 3.257,-1.092 4.348,-0.267c0.545,0.267 1.074,2.979 0.545,5.159c-1.364,1.101 -5.163,4.899 -6.233,5.163l-0.015,-0.003Zm-72.55,-34.763c-1.358,0.265 -4.076,-1.637 -5.163,-2.727c-1.628,-1.621 -2.171,-3.522 -1.628,-4.613c-0.273,-1.357 0.54,-4.348 2.441,-3.802c0.817,-0.267 3.262,1.09 4.349,2.991c0.558,2.155 0.558,5.954 -0,8.14l0.001,0.011Zm85.047,-17.381c-1.374,0.28 -4.084,-1.622 -5.176,-2.712c-1.62,-1.357 -2.164,-4.349 -1.62,-4.894c-0.281,-1.636 0.546,-3.802 2.445,-3.536c0.811,-0.266 3.258,1.091 4.351,2.992c0.527,2.171 0.527,5.985 -0,8.156l-0,-0.006Zm-128.235,-37.229c-1.357,0.266 -4.072,-1.637 -5.16,-2.712c-1.086,-1.635 -2.718,-3.536 -1.904,-4.628c-0.543,-1.355 1.356,-4.346 2.718,-3.8c0.814,-0.267 3.256,1.09 4.344,2.991c0.546,2.171 0.546,5.969 0.002,8.14l-0,0.009Zm74.432,-5.969c-1.636,0.279 -3.801,-2.714 -4.347,-3.804c-0.811,-1.901 -1.356,-4.349 -0.545,-5.158c0.279,-1.355 2.18,-3.258 3.535,-2.712c1.09,-0 2.994,1.622 3.524,3.802c0,2.171 -1.07,6.248 -2.171,7.876l0.004,-0.004Zm-137.457,-29.073c-1.358,-0.265 -4.071,-1.09 -5.16,-2.446c-1.085,-1.356 -2.718,-4.348 -1.901,-4.878c-0.546,-1.636 1.355,-3.816 2.717,-3.536c0.812,0 3.261,0.546 4.344,2.711c0.546,2.186 0.546,5.985 0,8.156l0,-0.007Zm226.286,-0.806c-1.355,-0.281 -4.067,-1.091 -5.157,-2.447c-1.09,-1.356 -2.712,-4.349 -1.901,-4.893c-0.547,-1.62 1.356,-3.802 2.711,-3.521c0.825,-0.281 3.271,1.076 4.347,2.977c0.559,2.186 0.559,6.248 0.016,7.892l-0.016,-0.008Zm-131.206,-20.653c-1.9,0.546 -3.257,-2.991 -4.074,-4.348c-1.089,-1.902 -1.089,-4.347 -0,-5.16c-0,-1.355 2.718,-3.537 3.806,-2.447c0.541,0.546 2.987,1.636 2.987,4.35c-0.264,1.907 -1.908,6.527 -2.714,7.613l-0.005,-0.008Zm-129.038,-32.329c-1.628,0 -3.802,-2.173 -4.344,-3.533c-1.36,-1.901 -1.633,-4.343 -0.814,-5.162c0.269,-1.902 2.175,-3.258 3.53,-2.989c1.087,-0 2.988,1.632 3.534,3.806c-0,2.171 -1.36,6.249 -1.906,7.877l0,0.001Zm199.386,-15.474c-1.076,0.546 -3.805,-2.988 -3.805,-4.344c-1.074,-1.906 -1.074,-4.348 0,-5.162c0,-1.36 2.729,-3.534 3.805,-2.447c0.546,0.546 2.991,1.628 2.991,4.348c0,1.907 -2.45,6.528 -2.992,7.613l0.001,-0.008Zm87.497,-10.869c-1.09,0.541 -3.802,-3.261 -3.802,-4.075c-1.09,-1.902 -0.825,-4.348 -0.279,-5.162c-0,-1.356 2.71,-3.53 3.8,-2.443c0.546,-0.546 2.992,2.175 2.992,4.075c-0.294,2.449 -1.907,5.706 -2.713,7.613l0.002,-0.008Zm-198.32,-6.249c-1.359,0.273 -4.076,-1.628 -5.163,-2.715c-1.628,-1.36 -2.172,-4.347 -1.628,-4.89c-0.273,-1.628 0.54,-3.804 2.441,-3.534c0.815,-0.27 3.262,1.087 4.349,2.988c0.541,2.155 0.541,5.97 0.001,8.14l0,0.011Zm70.354,-0.542c-1.904,0.541 -3.262,-3.261 -4.071,-4.075c-1.09,-1.901 -0.818,-4.348 -0.273,-5.162c0.273,-1.36 2.175,-3.262 3.53,-2.716c0.546,-0 2.714,1.356 3.259,4.074c-0.527,2.171 -1.333,6.249 -2.434,7.877l-0.011,0.002Zm-139.628,-25.538c-1.087,-0.541 -1.628,-4.887 -0.541,-5.703c-0,-1.9 1.356,-4.347 2.988,-4.347c0.815,-1.357 3.262,-0.268 4.344,0.273c0.546,0.814 0.546,3.26 0,5.163c-1.628,1.364 -5.976,4.621 -6.791,4.621l-0,-0.007Zm222.752,-24.996c-1.355,-0.268 -4.07,-1.082 -5.16,-2.442c-1.62,-1.358 -1.901,-4.348 -1.901,-4.889c-0.265,-1.632 0.546,-3.802 2.445,-3.532c1.904,-0.27 2.449,1.087 4.616,2.988c0.543,2.172 0.543,6.247 0,7.875Z" style="fill:#fff;stroke:#000;stroke-width:0.06px;"/><path d="M319.403,81.187c5.81,0.169 11.18,0.62 15.972,1.407c39.927,7.064 64.375,33.958 79.586,60.85c14.398,26.353 14.679,63.296 9.241,95.081c-6.248,30.421 -33.147,59.498 -44.01,89.374c-11.952,28.796 -9.784,62.753 -22.813,87.203c-14.135,24.45 -36.949,52.158 -58.143,58.13c-22.268,4.081 -49.436,-10.053 -70.084,-27.708c-20.371,-18.205 -30.42,-51.335 -53.241,-77.422c-23.903,-27.16 -70.904,-55.681 -88.562,-78.23c-18.2,-22.83 -19.284,-36.403 -19.014,-55.424c0,-19.83 9.781,-41.289 19.014,-59.218c8.697,-19.014 19.29,-37.216 33.958,-49.442c11.452,-10.352 15.229,-15.349 35.357,-20.486c-13.203,15.774 -20.703,29.56 -21.499,44.118c-0.298,3.219 -0.308,6.333 -0.018,9.373c-0.167,-0.443 -0.348,-0.774 -0.528,-0.955c-1.901,-2.174 -7.064,-2.174 -9.238,-0c-2.987,0.814 -5.703,5.162 -5.976,8.691c-0.814,3.262 -1.63,10.598 1.628,11.685l0,0.004c1.906,0 11.412,-6.248 13.859,-9.241c0.751,-1.399 1.035,-3.265 1.036,-5.077c1.89,8.877 6.513,17.262 14.179,25.998c-0.543,-13.313 2.174,-23.633 7.063,-32.055c4.619,-9.511 12.499,-17.388 22.549,-19.562c9.505,-2.169 21.731,-0.541 36.672,5.981c-4.075,22.817 -3.529,39.388 0.539,50.798c4.35,10.593 11.141,16.028 23.638,15.209c-6.25,-12.494 -7.878,-23.904 -5.977,-34.225c1.901,-11.139 7.332,-21.191 17.384,-30.154l10.595,24.179l13.043,-27.439c5.971,3.532 11.407,9.51 17.379,16.842c5.702,7.336 10.877,16.028 16.579,27.167c4.067,-13.04 5.703,-25.534 3.801,-38.574c-1.901,-13.311 -7.337,-26.078 -15.209,-39.391c10.863,-0.541 20.634,0.815 30.418,5.163c9.773,4.075 18.203,10.052 27.441,19.016c-4.346,-14.4 -9.518,-25.265 -17.67,-32.597c-8.134,-7.609 -18.186,-12.499 -30.139,-13.584c1.897,-2.331 5.461,-4.33 11.19,-5.485Zm-43.247,348.321c-1.636,2.169 -8.692,-0.546 -11.685,-1.901c-3.262,-2.18 -6.523,-5.703 -6.523,-8.429c-0.541,-3.524 0,-7.872 2.717,-8.696c1.638,-1.621 7.608,-0.266 10.599,2.992c1.907,2.729 5.985,13.319 4.9,16.048l-0.008,-0.014Zm38.577,-13.862c-2.181,-0.28 -4.082,-8.693 -2.712,-11.686c0,-4.069 2.431,-7.869 5.16,-9.24c2.165,-1.623 7.324,-3.259 9.225,-0.811c1.37,1.357 2.725,7.062 1.09,10.862c-2.714,3.551 -9.769,10.342 -12.761,10.885l-0.002,-0.01Zm-67.386,-34.499c-2.447,1.357 -8.424,-3.258 -10.595,-5.439c-2.718,-3.521 -4.347,-6.795 -3.805,-9.772c-0.27,-2.992 2.987,-7.603 5.435,-7.603c1.901,-0.281 7.335,1.355 8.963,5.969c1.365,3.535 1.365,14.389 0,16.839l0.002,0.006Zm85.031,-17.661c-2.445,1.903 -8.416,-3.257 -10.596,-5.157c-2.712,-3.536 -4.348,-6.796 -3.802,-9.787c-0.265,-2.992 2.991,-7.603 5.438,-7.603c1.901,-0.283 7.326,1.355 8.96,5.968c1.349,3.271 1.349,14.683 -0.015,16.575l0.015,0.004Zm-128.218,-36.949c-2.444,1.359 -8.419,-3.256 -10.593,-5.437c-2.717,-3.522 -4.349,-6.779 -3.805,-9.772c-0,-2.992 2.443,-7.604 5.16,-7.604c2.172,-0.28 7.336,1.356 9.237,5.97c1.362,3.535 1.362,14.389 0.001,16.839l0,0.004Zm72.802,-5.706c-2.448,0.546 -7.886,-4.892 -8.96,-7.886c-2.182,-4.067 -2.182,-7.603 -1.09,-10.58c1.09,-3.272 3.8,-6.53 7.058,-5.705c1.901,0.532 6.796,3.258 7.34,8.136c0.015,3.535 -2.171,14.141 -4.342,16.032l-0.006,0.003Zm-135.825,-29.336c-2.443,1.355 -8.419,-3.257 -10.595,-5.423c-2.713,-3.537 -4.347,-6.795 -3.801,-9.787c-0,-2.993 2.443,-7.604 5.163,-7.604c2.171,-0.548 7.332,1.901 9.235,6.248c1.356,3.241 1.356,14.653 -0.002,16.56l0,0.006Zm226.299,-0.821c-2.446,1.902 -8.429,-3.258 -10.595,-5.158c-2.714,-2.992 -4.349,-7.34 -3.804,-10.05c0,-2.993 2.446,-7.605 5.161,-7.605c2.164,-0.546 7.337,1.902 9.238,6.248c1.333,3.272 1.333,14.684 -0.016,16.575l0.016,-0.01Zm-133.656,-20.359c-2.718,0.265 -7.063,-5.439 -7.878,-8.694c-1.359,-4.084 -1.359,-7.607 -0,-10.598c1.082,-3.806 4.617,-5.163 7.605,-5.163c1.628,0.814 6.249,3.804 6.518,8.964c0.264,3.814 -4.62,13.877 -6.248,15.505l0.003,-0.014Zm-128.229,-32.329c-2.447,1.087 -7.877,-4.89 -8.964,-7.608c-1.901,-4.075 -2.716,-7.605 -1.358,-10.593c1.087,-3.261 3.802,-6.249 7.063,-5.976c1.901,0.541 6.79,3.262 7.335,8.151c-0.274,3.52 -1.631,14.11 -4.076,16.017l-0,0.009Zm198.84,-15.489c-2.713,0.273 -7.061,-5.43 -7.87,-8.693c-1.357,-4.074 -1.357,-7.608 -0,-10.596c1.09,-3.803 4.612,-5.159 7.605,-5.159c1.901,0.814 5.703,3.804 6.247,8.966c0,3.814 -4.062,13.861 -5.985,15.489l0.003,-0.007Zm87.76,-10.59c-2.445,0.272 -7.337,-5.435 -8.413,-8.696c-1.374,-4.072 -1.374,-7.605 -0,-10.593c1.074,-3.802 4.613,-5.163 7.602,-5.163c1.903,0.814 5.706,4.074 6.25,8.697c-0.821,3.519 -2.992,14.389 -5.426,15.753l-0.013,0.002Zm-196.409,-7.071c-2.446,1.901 -8.424,-3.261 -10.596,-5.163c-2.717,-3.529 -4.345,-6.79 -3.802,-9.778c-0.273,-2.989 2.989,-7.608 5.435,-7.608c1.901,-0.27 7.331,1.36 8.963,5.975c1.355,3.288 1.355,14.7 0,16.591l0,-0.017Zm68.723,0c-2.168,0.273 -7.878,-4.89 -8.694,-8.149c-1.63,-4.075 -1.901,-7.606 -0.817,-10.594c1.361,-3.26 3.805,-6.523 7.343,-5.707c2.168,0.273 6.235,3.806 7.061,8.424c-0.527,4.357 -2.17,13.862 -4.884,16.032l-0.009,-0.006Zm84.767,-50.795c-2.18,1.902 -8.96,-3.261 -10.877,-5.164c-2.977,-2.987 -3.801,-7.335 -3.521,-10.05c0,-2.988 2.445,-7.605 5.157,-7.605c2.18,-0.546 7.34,1.901 9.241,6.245c1.334,3.261 1.334,14.673 -0.015,16.574l0.015,-0Z" style="fill:#fff;stroke:#000;stroke-width:0.06px;"/><path d="M248.712,85.309c-7.065,-5.159 -14.4,-8.691 -20.917,-11.68c-7.064,-2.988 -13.584,-4.891 -19.562,-5.705l10.325,9.238c-23.906,-2.719 -43.194,-2.719 -58.949,2.174c-15.755,3.804 -27.98,12.494 -35.585,23.906c4.889,-4.62 11.951,-5.976 20.098,-7.062c7.612,-0.273 17.388,-0.273 28.255,2.987c-14.942,13.04 -23.365,26.894 -28.255,39.389c-4.073,12.226 -4.614,25.264 1.36,36.946c3.262,-17.929 8.424,-30.155 15.482,-37.76c6.25,-7.879 13.586,-7.879 24.996,-7.336c11.134,0.546 24.988,4.075 42.649,10.596c-6.791,17.383 -8.691,31.237 -8.691,41.562c0,9.779 3.529,17.115 10.592,19.832c-3.534,-16.028 -3.534,-29.07 1.088,-40.203c3.802,-11.41 11.952,-20.104 24.448,-26.078l7.33,19.016l11.408,-25.265c5.175,0.814 10.598,5.432 16.304,12.767c5.171,7.063 11.14,16.842 16.843,30.427c1.357,-11.684 -0.265,-23.091 -3.8,-34.23c-4.071,-11.412 -10.052,-22.546 -19.015,-33.415c6.516,-3.804 15.473,-4.618 25.807,-2.443c10.863,2.174 21.725,7.336 36.669,15.482c-5.425,-7.876 -11.672,-14.395 -20.914,-19.556c-9.504,-5.705 -19.837,-8.964 -33.145,-11.953c-0,-2.715 3.536,-4.889 10.598,-6.522c7.337,-2.169 16.565,-2.715 30.699,-3.802c-13.309,-1.357 -27.164,-0.815 -40.486,1.633c-13.854,1.628 -28.239,5.158 -42.099,10.593c15.763,-21.191 24.723,-37.76 27.981,-49.713c2.71,-12.767 -0.265,-19.83 -10.052,-23.363c-7.605,7.878 -13.038,17.114 -16.298,28.794c-3.783,11.402 -5.147,24.984 -5.147,40.738l-0.017,0.006Z" style="fill:#fff;stroke:#000;stroke-width:0.06px;"/></g><g id="Gerald_G_Simple_Fruit_-FF_Menu-_9.svg" serif:id="Gerald_G_Simple_Fruit_(FF_Menu)_9.svg"></g></svg>