<?xml version="1.0" encoding="UTF-8" standalone="no"?><!DOCTYPE svg PUBLIC "-//W3C//DTD SVG 1.1//EN" "http://www.w3.org/Graphics/SVG/1.1/DTD/svg11.dtd"><svg width="100%" height="100%" viewBox="0 0 60 60" version="1.1" xmlns="http://www.w3.org/2000/svg" xmlns:xlink="http://www.w3.org/1999/xlink" xml:space="preserve" xmlns:serif="http://www.serif.com/" style="fill-rule:evenodd;clip-rule:evenodd;stroke-linejoin:round;stroke-miterlimit:2;"><path d="M17.82,30.898l19.303,-12.796c0.102,-0.065 0.198,-0.141 0.285,-0.229c0.118,-0.117 0.215,-0.249 0.292,-0.391l0.001,-0.003c0.136,-0.252 0.202,-0.527 0.202,-0.799l0,-0.006c0,-0.273 -0.066,-0.547 -0.202,-0.8l-0.001,-0.002c-0.077,-0.142 -0.174,-0.274 -0.292,-0.392c-0.087,-0.087 -0.183,-0.163 -0.285,-0.228l-19.885,-13.182c-0.3,-0.264 -0.694,-0.424 -1.126,-0.424c-0.942,0 -1.707,0.765 -1.707,1.707l-0,53.294c-0,0.942 0.765,1.707 1.707,1.707c0.943,0 1.708,-0.765 1.708,-1.707l-0,-25.749Zm-0,-4.059l15.33,-10.162l-15.33,-10.162l-0,20.324Z" style="fill:#fff;stroke:#fff;stroke-width:1.02px;"/></svg>